<svg width="511.072" height="511.072" xmlns="http://www.w3.org/2000/svg">

 <g>
  <title>background</title>
  <rect fill="none" id="canvas_background" height="402" width="582" y="-1" x="-1"/>
 </g>
 <g>
  <title>Layer 1</title>
  <g id="Speech_Bubble_48_">
   <g id="svg_1">
    <path fill="#ffffff" id="svg_2" d="m74.39,480.536l-36.213,0l25.607,-25.607c13.807,-13.807 22.429,-31.765 24.747,-51.246c-36.029,-23.644 -62.375,-54.751 -76.478,-90.425c-14.093,-35.647 -15.864,-74.888 -5.121,-113.482c12.89,-46.309 43.123,-88.518 85.128,-118.853c45.646,-32.963 102.47,-50.387 164.33,-50.387c77.927,0 143.611,22.389 189.948,64.745c41.744,38.159 64.734,89.63 64.734,144.933c0,26.868 -5.471,53.011 -16.26,77.703c-11.165,25.551 -27.514,48.302 -48.593,67.619c-46.399,42.523 -112.042,65 -189.83,65c-28.877,0 -59.01,-3.855 -85.913,-10.929c-25.465,26.123 -59.972,40.929 -96.086,40.929zm182,-420c-124.039,0 -200.15,73.973 -220.557,147.285c-19.284,69.28 9.143,134.743 76.043,175.115l7.475,4.511l-0.23,8.727c-0.456,17.274 -4.574,33.912 -11.945,48.952c17.949,-6.073 34.236,-17.083 46.99,-32.151l6.342,-7.493l9.405,2.813c26.393,7.894 57.104,12.241 86.477,12.241c154.372,0 224.682,-93.473 224.682,-180.322c0,-46.776 -19.524,-90.384 -54.976,-122.79c-40.713,-37.216 -99.397,-56.888 -169.706,-56.888z"/>
   </g>
  </g>
 </g>
</svg>