<svg width="512" height="512" xmlns="http://www.w3.org/2000/svg">

 <g>
  <title>background</title>
  <rect fill="none" id="canvas_background" height="402" width="582" y="-1" x="-1"/>
 </g>
 <g>
  <title>Layer 1</title>
  <path fill="#ffffff" id="svg_1" d="m382.86719,157.37891l20.07422,-20.07422c7.80078,-7.80078 7.80078,-20.44922 0,-28.2461c-7.80078,-7.80078 -20.44532,-7.80078 -28.2461,0l-20.07422,20.07422c-33.67968,-28.0625 -74.60546,-45.01562 -118.26172,-48.98437l0,-40.19922l19.3086,0c11.03125,0 19.97266,-8.94531 19.97266,-19.97656s-8.94141,-19.97266 -19.97266,-19.97266l-78.56641,0c-11.03125,0 -19.97265,8.94141 -19.97265,19.97266s8.9414,19.97656 19.97265,19.97656l19.3086,0l0,40.19922c-109.28125,9.9375 -196.41016,101.74219 -196.41016,215.46484c0,119.59375 96.77734,216.38672 216.38672,216.38672c119.58984,0 216.38281,-96.77734 216.38281,-216.38672c0,-51.08594 -17.59375,-99.46484 -49.90234,-138.23437zm-166.48438,314.67187c-97.28515,0 -176.4375,-79.14844 -176.4375,-176.4375c0,-97.28515 79.15235,-176.43359 176.4375,-176.43359c97.28907,0 176.4375,79.14844 176.4375,176.43359c0,97.28906 -79.14843,176.4375 -176.4375,176.4375zm92.56641,-269c7.80078,7.80078 7.80078,20.44922 0,28.2461l-78.44141,78.4414c-7.80078,7.80078 -20.44922,7.80078 -28.24609,0c-7.80078,-7.80078 -7.80078,-20.44922 0,-28.24609l78.4375,-78.44141c7.80078,-7.80078 20.44922,-7.80078 28.25,0zm0,0"/>
 </g>
</svg>